<?xml version="1.0" encoding="utf-8"?>
<!-- Uploaded to: SVG Repo, www.svgrepo.com, Generator: SVG Repo Mixer Tools -->
<svg width="800px" height="800px" viewBox="0 0 128 128" xmlns="http://www.w3.org/2000/svg" xmlns:xlink="http://www.w3.org/1999/xlink" aria-hidden="true" role="img" class="iconify iconify--noto" preserveAspectRatio="xMidYMid meet">
<path d="M71.59 68.58H58.75c0 20.36-4.21 28.52-4.21 28.52H75.8c0-.01-4.21-8.17-4.21-28.52z" fill="#b7d5e5">
</path>
<path d="M39.41 98.17c-.07-1.14.1-2.64.1-2.64s45.24-1.88 48.83-.09c0 0 .48 1.66.15 2.74c-.79 2.53-10.99 4.8-24.55 4.8s-24.37-2.16-24.53-4.81z" fill="#2f7889">
</path>
<ellipse cx="64" cy="95.96" rx="24.55" ry="4.8" fill="#b7d5e5">
</ellipse>
<path d="M71.59 68.58H58.75c0 6.64-.45 11.98-1.05 16.16l15.31 2.3c-.78-4.47-1.42-10.54-1.42-18.46z" fill="#69a1ba">
</path>
<path d="M55.49 91.46s-3.72 1.52-2.88 2.63c1.3 1.74 4.93 2.83 13.71 3.42c6.17.41 3.75 2.13-2.05 2.48c-4.07.24-23.58.4-24.74-3.67c-.94-3.31 13.18-4.86 15.96-4.86z" fill="#eee">
</path>
<path d="M99.4 106.51H28.49c-.97 0-1.94.54-2.48 1.4l-7.78 10.7c-.72.98-.01 2.36 1.2 2.36h89.13c1.22 0 1.92-1.38 1.2-2.36l-7.88-10.8c-.53-.76-1.5-1.3-2.48-1.3z" fill="#eee">
</path>
<g opacity=".57" fill="#69a1ba">
<path d="M35.61 111.26h-4.86l.65-1.18h4.86z">
</path>
<path d="M43.28 111.26h-4.86l.54-1.18h5.07z">
</path>
<path d="M50.62 111.26h-4.97l.76-1.18h4.85z">
</path>
<path d="M57.85 111.26h-4.86l.76-1.18h4.64z">
</path>
<path d="M65.08 111.26h-4.97l.44-1.18h4.1z">
</path>
<path d="M72.31 111.26h-4.86l-.54-1.18h4.65z">
</path>
<path d="M79.87 111.26H74.9l-.86-1.18h4.86z">
</path>
<path d="M87.1 111.26h-4.97l-.86-1.18h4.97z">
</path>
<path d="M96.92 111.26h-7.45l-.86-1.18h7.56z">
</path>
<path d="M93.14 113.21H98l-.86-1.3h-4.97z">
</path>
<path d="M85.16 113.21h4.85l-.97-1.3h-4.86z">
</path>
<path d="M77.82 113.21h4.85l-.75-1.3h-4.97z">
</path>
<path d="M69.94 113.21h4.85l-.86-1.3h-4.64z">
</path>
<path d="M62.92 113.21h4.86l-.54-1.3h-4.1z">
</path>
<path d="M55.9 113.21h4.86l.33-1.3h-4.75z">
</path>
<path d="M48.24 113.21h4.86l.65-1.3H49z">
</path>
<path d="M39.61 113.21h4.96l.76-1.3h-4.97z">
</path>
<path d="M29.68 113.21h7.34l.75-1.3h-7.45z">
</path>
<path d="M76.09 115.15h4.96l-.86-1.3h-4.96z">
</path>
<path d="M68.32 115.15h4.85l-.64-1.3h-4.64z">
</path>
<path d="M59.03 115.15H64l-.11-1.3h-4.42z">
</path>
<path d="M50.29 115.15h4.97l.43-1.3h-4.75z">
</path>
<path d="M41.12 115.15h4.85l.76-1.3h-4.86z">
</path>
<path d="M28.7 115.15h9.83l.75-1.3h-9.82z">
</path>
<path d="M84.4 115.15h14.68l-.86-1.3H83.54z">
</path>
<path d="M95.52 117.09h4.96l-.97-1.29h-4.96z">
</path>
<path d="M86.45 117.09h4.86l-.97-1.29h-4.86z">
</path>
<path d="M47.27 117.09h33.35l-.75-1.29H48.02z">
</path>
<path d="M36.8 117.09h4.96l.54-1.29h-4.75z">
</path>
<path d="M27.52 117.09h4.85l.54-1.29h-4.75z">
</path>
</g>
<path d="M108.69 124H19.31c-.88 0-1.64-.76-1.64-1.62v-2.4h92.68v2.4c-.01.86-.78 1.62-1.66 1.62z" fill="#2f7889">
</path>
<path d="M99.4 107.52c.61 0 1.3.36 1.67.88l8.22 11.27c.05.06.05.13.02.2c-.04.07-.09.1-.17.1H18.86c-.08 0-.13-.03-.17-.1a.166.166 0 0 1 .02-.2l8.12-11.16l.02-.03l.02-.03c.35-.57.99-.93 1.63-.93h70.9m0-1.01H28.49c-.97 0-1.94.54-2.48 1.4l-8.12 11.16c-.57.79-.01 1.9.97 1.9h90.29c.98 0 1.54-1.11.97-1.9l-8.22-11.27c-.55-.75-1.52-1.29-2.5-1.29z" fill="#b7d5e5">
</path>
<path d="M113.46 79.66H14.54a3.44 3.44 0 0 1-3.44-3.44v-67c0-1.9 1.54-3.44 3.44-3.44h98.91c1.9 0 3.44 1.54 3.44 3.44v67c.01 1.9-1.53 3.44-3.43 3.44z" fill="#69a1ba">
</path>
<path d="M113.46 77.89H14.54a3.44 3.44 0 0 1-3.44-3.44v-67c0-1.9 1.54-3.44 3.44-3.44h98.91c1.9 0 3.44 1.54 3.44 3.44v67a3.431 3.431 0 0 1-3.43 3.44z" fill="#b7d5e5">
</path>
<radialGradient id="IconifyId17ecdb2904d178eab7646" cx="46.465" cy="-5.176" r="60.973" gradientUnits="userSpaceOnUse">
<stop offset="0" stop-color="#2f7889">
</stop>
<stop offset="1" stop-color="#424242">
</stop>
</radialGradient>
<path fill="url(#IconifyId17ecdb2904d178eab7646)" d="M15.25 9.38h97.5V72.5h-97.5z">
</path>
<path fill="none" stroke="#eee" stroke-width="3.014" stroke-linecap="round" stroke-miterlimit="10" d="M16.39 6.99h11.19">
</path>
</svg>