<?xml version="1.0" encoding="utf-8"?>
<!-- Uploaded to: SVG Repo, www.svgrepo.com, Generator: SVG Repo Mixer Tools -->
<svg width="800px" height="800px" viewBox="0 0 1024 1024" class="icon"  version="1.1" xmlns="http://www.w3.org/2000/svg"><path d="M85.333333 832V149.333333c0-46.933333 38.4-85.333333 85.333334-85.333333h469.333333c46.933333 0 85.333333 38.4 85.333333 85.333333v682.666667c0 46.933333-38.4 85.333333-85.333333 85.333333H170.666667c-46.933333 0-85.333333-38.4-85.333334-85.333333z" fill="#37474F" /><path d="M640 128H170.666667c-12.8 0-21.333333 8.533333-21.333334 21.333333v618.666667c0 12.8 8.533333 21.333333 21.333334 21.333333h469.333333c12.8 0 21.333333-8.533333 21.333333-21.333333V149.333333c0-12.8-8.533333-21.333333-21.333333-21.333333z" fill="#BBDEFB" /><path d="M320 832h128v42.666667h-128z" fill="#78909C" /><path d="M512 874.666667V362.666667c0-46.933333 38.4-85.333333 85.333333-85.333334h256c46.933333 0 85.333333 38.4 85.333334 85.333334v512c0 46.933333-38.4 85.333333-85.333334 85.333333H597.333333c-46.933333 0-85.333333-38.4-85.333333-85.333333z" fill="#E38939" /><path d="M853.333333 341.333333H597.333333c-12.8 0-21.333333 8.533333-21.333333 21.333334v469.333333c0 12.8 8.533333 21.333333 21.333333 21.333333h256c12.8 0 21.333333-8.533333 21.333334-21.333333V362.666667c0-12.8-8.533333-21.333333-21.333334-21.333334z" fill="#FFF3E0" /><path d="M725.333333 906.666667m-32 0a32 32 0 1 0 64 0 32 32 0 1 0-64 0Z" fill="#A6642A" /></svg>